<?xml version="1.0" encoding="UTF-8"?>
<svg version="1.1" xmlns="http://www.w3.org/2000/svg" width="2128" height="647">
<path d="M0 0 C214.5 0 429 0 650 0 C650 9.57 650 19.14 650 29 C646.06900391 29.25523438 646.06900391 29.25523438 642.05859375 29.515625 C597.92841566 30.79575743 597.92841566 30.79575743 560.25 50.6875 C552.77606653 60.57822336 553.43093881 72.27267036 553.49206543 84.01586914 C553.4874521 85.94793447 553.4810963 87.87999629 553.47315645 89.81205082 C553.45649941 95.10199397 553.4646931 100.39164749 553.47710133 105.68159151 C553.4861643 111.39401975 553.47217589 117.10639873 553.46118164 122.81881714 C553.4434052 134.00185808 553.44723255 145.18479158 553.4588322 156.36783671 C553.46786967 165.45740181 553.46908916 174.54693682 553.46473694 183.63650513 C553.46381754 185.57780921 553.46381754 185.57780921 553.46287957 187.55833155 C553.46160065 190.18756764 553.4603038 192.81680372 553.4589892 195.4460398 C553.44791096 219.39169177 553.45939502 243.33728573 553.48035959 267.28292836 C553.49934119 289.129731 553.49764265 310.97644036 553.47851562 332.82324219 C553.45708439 357.38383645 553.44868458 381.94437435 553.46096468 406.50497723 C553.46223886 409.1244831 553.46349635 411.74398898 553.46473694 414.36349487 C553.46535404 415.65230578 553.46597114 416.94111669 553.46660694 418.26898247 C553.47005909 427.34649952 553.46423441 436.42398344 553.45481873 445.50149536 C553.44359463 456.56556984 553.44664756 467.62953082 553.4679417 478.69359231 C553.47844645 484.33748766 553.48258356 489.98119384 553.46934509 495.62508774 C553.45740375 500.79420476 553.46401277 505.9629577 553.4852553 511.13204181 C553.48971393 512.99932206 553.48747176 514.86663323 553.47775215 516.73389351 C553.41877944 529.00724754 553.64989572 540.7481896 562.7109375 550.15625 C583.15938642 566.62667302 615.07719661 566.34840714 639.8605957 567.75048828 C643.25525941 568.02028736 646.62885738 568.5184082 650 569 C650 578.24 650 587.48 650 597 C561.89 597 473.78 597 383 597 C383 587.76 383 578.52 383 569 C386.568125 568.731875 390.13625 568.46375 393.8125 568.1875 C430.85143306 567.42211042 430.85143306 567.42211042 463 552 C471.07995222 539.64518933 470.29142736 525.27428727 470.25396729 511.1051178 C470.25627454 509.19836716 470.25945284 507.29161742 470.26342177 505.38486952 C470.27174203 500.1695282 470.2676571 494.95426042 470.26144934 489.7389189 C470.25691447 484.10487671 470.26391376 478.47084695 470.26940918 472.83680725 C470.27829394 461.80900204 470.27638519 450.78122407 470.2705839 439.7534178 C470.26606359 430.78880517 470.26545611 421.82420016 470.26763153 412.85958672 C470.26809123 410.94433029 470.26809123 410.94433029 470.26856022 408.99038182 C470.26919968 406.39634073 470.26984811 403.80229965 470.2705054 401.20825856 C470.27604362 377.5867655 470.27030409 353.96529069 470.2598202 330.3438007 C470.25033067 308.79893535 470.25117784 287.25409365 470.26074219 265.70922852 C470.27146134 241.48225832 470.27565564 217.25530494 470.26951766 193.0283317 C470.26888058 190.44363082 470.26825184 187.85892993 470.26763153 185.27422905 C470.26732298 184.00257922 470.26701443 182.73092938 470.26669653 181.42074471 C470.26497144 172.46990122 470.26788071 163.51906614 470.27259064 154.56822395 C470.27820664 143.65577728 470.27666791 132.74335938 470.26602915 121.83091599 C470.26078199 116.26579873 470.25869942 110.70072937 470.26532745 105.13561249 C470.27130883 100.03622882 470.26797576 94.93693727 470.25737235 89.8375619 C470.25514757 87.99786389 470.25625376 86.15815803 470.26112393 84.31846512 C471.00712952 63.46631153 471.00712952 63.46631153 462.46484375 45.32421875 C456.16021126 39.53659485 448.85598312 36.5794804 440.5625 34.875 C439.77447998 34.70887207 438.98645996 34.54274414 438.17456055 34.37158203 C430.15739921 32.74007566 422.14127294 31.73021588 414 31 C413.08872345 30.91627136 412.1774469 30.83254272 411.23855591 30.74627686 C385.77290123 28.51266331 360.27475959 28.69205576 334.73242188 28.73925781 C328.51281063 28.75062636 322.29337106 28.74389838 316.07376575 28.73237324 C247.95302613 24.01946936 247.95302613 24.01946936 187 45 C181.06590584 52.77013814 179.68788951 61.87859596 179.74552441 71.42969227 C179.74071469 72.63271244 179.74071469 72.63271244 179.73580781 73.86003605 C179.72753896 76.53427233 179.73342113 79.20828283 179.73930359 81.88252258 C179.73628148 83.82452023 179.73239171 85.76651669 179.72771102 87.70851105 C179.71742988 93.03517136 179.71961316 98.36176436 179.72389162 103.68843019 C179.72635862 109.43702888 179.71734497 115.18561135 179.70985413 120.9342041 C179.6971043 132.19269041 179.6953138 143.45115288 179.69765439 154.70964519 C179.69943743 163.86121887 179.69768819 173.01278532 179.69342995 182.16435814 C179.69253716 184.11812473 179.69253716 184.11812473 179.69162634 186.11136135 C179.69041459 188.75742577 179.68920046 191.40349019 179.68798397 194.04955461 C179.68019678 211.81629 179.67627759 229.58302228 179.68030071 247.3497591 C179.68053528 248.39155473 179.68053528 248.39155473 179.68077458 249.45439673 C179.68158034 252.97439846 179.68242611 256.49440018 179.68328788 260.01440189 C179.68345897 260.71346105 179.68363006 261.4125202 179.68380633 262.13276297 C179.68415299 263.54642991 179.68450152 264.96009686 179.68485192 266.3737638 C179.69020851 288.36792545 179.68227965 310.362047 179.66381836 332.35620117 C179.64309152 357.07828935 179.63240806 381.80035175 179.63639385 406.5224492 C179.63830639 419.60799617 179.63581312 432.69350661 179.62167931 445.77904701 C179.60976841 456.91924205 179.60835737 468.05937807 179.62046947 479.19957391 C179.62636023 484.88203416 179.62745203 490.56438645 179.61546707 496.24683952 C179.6046156 501.45241716 179.60770304 506.65779661 179.62172876 511.86336496 C179.62437769 513.74283931 179.62200298 515.62232915 179.61399289 517.5017883 C179.19278228 535.92897839 179.19278228 535.92897839 187 552 C205.92880859 569.76257867 242.94966724 567.20901777 267 569 C267 578.24 267 587.48 267 597 C178.89 597 90.78 597 0 597 C0 587.76 0 578.52 0 569 C4.44474875 568.36503589 8.6246514 567.83392313 13.0703125 567.5703125 C53.04103572 566.11930876 53.04103572 566.11930876 88 549 C89.77185423 546.73540969 89.77185423 546.73540969 91.1875 544.25 C91.67605469 543.45078125 92.16460937 542.6515625 92.66796875 541.828125 C95.58519244 535.63437148 96.29583127 529.57499458 96.25447559 522.79988384 C96.25768207 522.01054326 96.26088855 521.22120268 96.26419219 520.40794268 C96.27247395 517.77080355 96.26657431 515.13389261 96.26069641 512.49674988 C96.26371793 510.58377617 96.26760741 508.67080367 96.27228898 506.7578333 C96.28257773 501.50679377 96.2803849 496.25582246 96.27610838 491.00477731 C96.27364275 485.33934375 96.28265332 479.67392668 96.29014587 474.00849915 C96.30289958 462.9113028 96.30468571 451.81413065 96.30234561 440.71692821 C96.30056298 431.69690094 96.30231091 422.67688102 96.30657005 413.65685463 C96.30716524 412.37334689 96.30776043 411.08983914 96.30837366 409.76743722 C96.3095854 407.16002454 96.31079954 404.55261185 96.31201603 401.94519917 C96.31980397 384.43633841 96.32372188 366.92748212 96.31969929 349.41862011 C96.31946472 348.39180766 96.31946472 348.39180766 96.31922542 347.34425153 C96.31841965 343.87482686 96.31757388 340.4054022 96.31671212 336.93597754 C96.31654103 336.24695543 96.31636994 335.55793331 96.31619367 334.84803174 C96.31584701 333.45466182 96.31549848 332.0612919 96.31514808 330.66792198 C96.30979147 308.98945469 96.31772008 287.31102807 96.33618164 265.63256836 C96.35690591 241.26867258 96.36759242 216.90480813 96.36360615 192.54090196 C96.36169322 179.64372564 96.36419065 166.74658639 96.37832069 153.84941673 C96.39022847 142.86946695 96.39164615 131.88957704 96.37953053 120.90962645 C96.37363754 115.30830715 96.37255411 109.7070974 96.38453293 104.10578537 C96.39537692 98.97546963 96.39230589 93.84535509 96.37827124 88.71504883 C96.37562024 86.86180716 96.37800351 85.00854981 96.38600711 83.15532353 C96.62986568 65.38180903 96.62986568 65.38180903 88.8359375 49.83984375 C74.05947167 35.03193864 50.84817941 33.06339032 31 31.375 C29.65358201 31.25330828 28.30722742 31.13091303 26.9609375 31.0078125 C17.98147262 30.19868286 8.99724324 29.5731417 0 29 C0 19.43 0 9.86 0 0 Z " fill="#7A222E" transform="translate(19,27)"/>
<path d="M0 0 C87.12 0 174.24 0 264 0 C264 7.59 264 15.18 264 23 C259.73111008 23.71148165 255.8389228 24.19771643 251.5546875 24.4296875 C214.4452996 24.97644688 214.4452996 24.97644688 183.296875 41.890625 C173.3104633 54.97961121 175.58972833 73.70831406 175.65942383 89.19091797 C175.66027111 91.83335285 175.65992469 94.47576274 175.65809631 97.11819458 C175.65653177 102.78308271 175.66585453 108.44786628 175.68280983 114.11272812 C175.70730746 122.30290601 175.71501604 130.49303393 175.7187738 138.68324448 C175.72532151 151.97489339 175.74523678 165.2664867 175.77368164 178.55810547 C175.80126591 191.46109745 175.82247804 204.36407428 175.83520508 217.26708984 C175.83599325 218.06392653 175.83678142 218.86076322 175.83759347 219.68174647 C175.8415089 223.67968859 175.84529995 227.67763081 175.84902918 231.67557311 C175.88007269 264.78375585 175.93286237 297.89187046 176 331 C181.33339345 325.74931615 181.33339345 325.74931615 186.32678223 320.17932129 C190.57545179 315.26237797 195.16509088 310.71050016 199.77148438 306.13085938 C200.73674049 305.16752702 201.7017658 304.20396335 202.6665802 303.2401886 C204.72980003 301.18010775 206.79455733 299.12158535 208.86054993 297.06428528 C212.13390452 293.80456047 215.40334547 290.54092874 218.67224121 287.2767334 C226.2007959 279.76017303 233.73437585 272.24865597 241.268013 264.73719025 C248.17802451 257.84741041 255.08694445 250.95654508 261.99181032 244.06160784 C265.23492317 240.82344741 268.48045091 237.58773376 271.7279129 234.35393524 C273.75438832 232.33497059 275.77874353 230.31388997 277.80255699 228.29225731 C279.17470808 226.92284093 280.54937781 225.55594966 281.92414856 224.18916321 C286.1872621 219.92641066 290.27100755 215.59472392 294.20098114 211.0248642 C297.79110083 206.98404785 301.66384356 203.21551879 305.49609375 199.40625 C306.91768569 197.98689956 308.3392775 196.56754899 309.76086426 195.14819336 C311.27461213 193.63779531 312.78960135 192.12865277 314.30496216 190.61987305 C317.47750463 187.46096582 320.64612846 184.29814687 323.81420898 181.13476562 C331.11054669 173.85041972 338.41191071 166.57111874 345.71333313 159.29187012 C352.41060562 152.61483216 359.10678462 145.93670699 365.79890919 139.25450897 C368.9416668 136.11670216 372.08683833 132.9813422 375.23394775 129.84790039 C376.72274253 128.36480062 378.21036278 126.88053444 379.69747925 125.39575195 C381.50124149 123.59483381 383.30677946 121.79569149 385.11453247 119.9987793 C389.95194253 115.16179167 394.56045678 110.20352325 399 105 C399.94648624 103.91931844 400.89416017 102.83967421 401.84375 101.76171875 C412.90911903 89.02779462 423.4841971 74.93032819 423.34765625 57.43359375 C422.58801294 49.93104918 418.80018541 43.74560624 413 39 C400.21766248 28.66594984 383.5738345 25.6764586 367.87915039 22.47729492 C366 22 366 22 365 21 C365 14.07 365 7.14 365 0 C439.25 0 513.5 0 590 0 C590 7.26 590 14.52 590 22 C587.67582031 22.43699219 587.67582031 22.43699219 585.3046875 22.8828125 C529.56920455 33.55368119 488.10023576 58.12302893 446.93359375 96.28515625 C444.97741634 98.0954669 443.01120571 99.89499562 441.03515625 101.68359375 C433.37818804 108.62916555 426.05230686 115.87262049 418.79858398 123.23828125 C415.36121951 126.71365766 411.92810908 130.12101334 408.20703125 133.29296875 C402.31682844 138.35288611 396.95310901 143.97931041 391.5 149.5 C379.39801899 161.7519613 379.39801899 161.7519613 375.03125 165.46875 C369.00641187 170.60334149 363.55997688 176.37402 358 182 C345.33776642 194.81254839 345.33776642 194.81254839 339.10546875 200.1171875 C334.01559498 204.66880003 329.29726237 209.64328498 324.5 214.5 C311.64993674 227.50931456 311.64993674 227.50931456 305.5546875 232.67016602 C303.59659616 234.34505979 301.78380375 236.1418711 300 238 C301.63996589 243.27732614 304.9671113 247.27485114 308.25 251.625 C309.52485421 253.33454994 310.79959052 255.04418781 312.07421875 256.75390625 C312.72696777 257.62547363 313.3797168 258.49704102 314.05224609 259.39501953 C317.07445703 263.43700884 320.06937089 267.49895246 323.0625 271.5625 C323.64161133 272.3477002 324.22072266 273.13290039 324.81738281 273.94189453 C329.28677606 280.00963863 333.7030862 286.11442886 338.10571289 292.23071289 C342.0339888 297.68106937 346.00712036 303.09683174 350 308.5 C354.53751011 314.64016269 359.03966576 320.80354661 363.5 327 C370.25983749 336.38780773 377.12417344 345.69696495 384 355 C391.42121495 365.04094886 398.81171806 375.10066404 406.10791016 385.23291016 C412.33662403 393.87249604 418.66954014 402.4348494 425 411 C432.42121495 421.04094886 439.81171806 431.10066404 447.10791016 441.23291016 C452.75410473 449.06450814 458.4872454 456.83114194 464.22509766 464.59570312 C466.01096782 467.0148571 467.79318282 469.43666019 469.57421875 471.859375 C509.7971382 526.56541339 540.03538158 560.38650658 608 576 C608 582.93 608 589.86 608 597 C524.18 597 440.36 597 354 597 C354 590.07 354 583.14 354 576 C356.48466797 575.47212891 356.48466797 575.47212891 359.01953125 574.93359375 C389.9621748 569.0857274 389.9621748 569.0857274 413.8125 550.16015625 C418.35240187 541.90171633 418.68231251 534.47740687 416.34765625 525.48828125 C412.24749363 512.84768774 404.78028578 501.64405286 396.72460938 491.2121582 C392.78214299 486.10120925 389.10716087 480.85205765 385.5 475.5 C381.47819653 469.5467511 377.3565622 463.71295887 373 458 C368.04866775 451.50709201 363.42667874 444.8309284 358.85546875 438.06640625 C355.37054669 432.93467138 351.76119918 427.93223217 348 423 C343.04866775 416.50709201 338.42667874 409.8309284 333.85546875 403.06640625 C330.37054669 397.93467138 326.76119918 392.93223217 323 388 C318.04866775 381.50709201 313.42667874 374.8309284 308.85546875 368.06640625 C305.37054669 362.93467138 301.76119918 357.93223217 298 353 C293.04866775 346.50709201 288.42667874 339.8309284 283.85546875 333.06640625 C279.91794855 327.26819631 275.79097295 321.65360344 271.53710938 316.08496094 C266.90823256 309.9815876 262.60939079 303.66720002 258.36328125 297.29296875 C255.82747526 293.51800316 253.41573603 290.05445626 250 287 C239.91220014 295.96470485 230.41912569 305.50746409 220.93579102 315.10131836 C212.21263403 323.905741 212.21263403 323.905741 208.10546875 327.390625 C204.33644007 330.60341524 200.86567318 334.07388821 197.3828125 337.58984375 C196.50043663 338.48048271 196.50043663 338.48048271 195.60023499 339.38911438 C193.14527196 341.87187061 190.69408154 344.35828271 188.24707031 346.84887695 C186.442454 348.68350719 184.63181915 350.5120205 182.8203125 352.33984375 C181.98755295 353.19279274 181.98755295 353.19279274 181.13796997 354.06297302 C179.79613293 355.41362049 178.40245259 356.71240459 177 358 C176.34 358 175.68 358 175 358 C175.06064659 380.96660717 175.1382254 403.93310232 175.23571491 426.89958382 C175.28059492 437.56439345 175.32002743 448.22917027 175.34643555 458.89404297 C175.3694789 468.1943895 175.4029473 477.49463152 175.44870156 486.79489505 C175.47254856 491.71491388 175.49133302 496.63482973 175.49761391 501.55490494 C175.50370353 506.19573547 175.52384179 510.83630282 175.55427551 515.47703552 C175.56299404 517.17077169 175.56679132 518.86454235 175.56500816 520.55830002 C175.45551765 540.05027967 175.45551765 540.05027967 184 557 C184 557.66 184 558.32 184 559 C184.57234375 559.28101563 185.1446875 559.56203125 185.734375 559.8515625 C187.17888429 560.58377928 188.60850797 561.34670803 190.015625 562.1484375 C208.57709314 572.3377749 232.3013923 572.81042484 253 574 C253 581.59 253 589.18 253 597 C169.51 597 86.02 597 0 597 C0 589.41 0 581.82 0 574 C1.98257813 573.89042969 3.96515625 573.78085937 6.0078125 573.66796875 C46.27432513 572.41831343 46.27432513 572.41831343 83 558 C83.59941406 557.60039063 84.19882812 557.20078125 84.81640625 556.7890625 C91.85515327 551.53205345 95.41107274 543.41704747 97 535 C97.55838968 528.67063414 97.40546598 522.2931973 97.38095093 515.94580078 C97.38441008 513.99738872 97.38917637 512.04897861 97.39513266 510.10057259 C97.40763683 504.76087587 97.40147485 499.42134035 97.39217401 494.0816431 C97.38538151 488.31741821 97.39586575 482.55322087 97.40411377 476.78900146 C97.41745112 465.50256767 97.41457333 454.21619373 97.40587585 442.9297576 C97.39909973 433.75673526 97.39818227 424.58372969 97.4014473 415.41070557 C97.40213684 413.452113 97.40213684 413.452113 97.40284032 411.45395291 C97.4037995 408.80136156 97.40477214 406.14877021 97.4057581 403.49617887 C97.41436935 379.3338482 97.40545141 355.17154779 97.38973031 331.0092223 C97.37549394 308.96120884 97.37676784 286.91324738 97.39111328 264.86523438 C97.40718408 240.08272684 97.41348802 215.30024846 97.40427649 190.51773643 C97.40332085 187.87492244 97.40237773 185.23210844 97.4014473 182.58929443 C97.40098447 181.28899139 97.40052164 179.98868834 97.40004479 178.64898217 C97.39745491 169.48735552 97.40182588 160.32574732 97.40888596 151.16412354 C97.41730112 139.99863897 97.4150204 128.83321767 97.39904372 117.66774035 C97.39116131 111.97134704 97.38806903 106.27505921 97.39799118 100.57866669 C97.40693901 95.36274321 97.40200357 90.14702286 97.38605852 84.93111777 C97.38271113 83.04565435 97.38440385 81.16017372 97.39168589 79.27472138 C97.43898344 66.00956574 96.9871091 54.58350348 88 44 C69.21589993 25.4767902 35.10927495 25.25768395 10.46704102 24.2902832 C6.81003625 24.14450539 3.62802229 23.72560446 0 23 C0 15.41 0 7.82 0 0 Z " fill="#7A222E" transform="translate(771,27)"/>
<path d="M0 0 C2.13870239 -0.36076355 2.13870239 -0.36076355 4.81689453 -0.34057617 C5.81778107 -0.34034958 6.8186676 -0.34012299 7.84988403 -0.33988953 C9.47493362 -0.31666374 9.47493362 -0.31666374 11.1328125 -0.29296875 C12.23978485 -0.28872391 13.3467572 -0.28447906 14.48727417 -0.28010559 C18.0334271 -0.26327214 21.57901797 -0.2256108 25.125 -0.1875 C27.52473139 -0.17245922 29.92447167 -0.15876977 32.32421875 -0.14648438 C38.21633859 -0.11335338 44.10812915 -0.06310777 50 0 C50.43006348 1.19520264 50.86012695 2.39040527 51.30322266 3.62182617 C60.44325093 29.02192765 69.59068181 54.41934783 78.75 79.8125 C78.97883125 80.44690884 79.20766251 81.08131767 79.44342804 81.73495102 C81.55308961 87.58370305 83.66283892 93.43242343 85.77267456 99.28111267 C89.47821219 109.55326549 93.18322304 119.82560821 96.88790894 130.09806824 C97.34503163 131.36559045 97.80215443 132.63311263 98.25927734 133.90063477 C98.4853964 134.52762488 98.71151546 135.154615 98.94448662 135.80060482 C100.54439438 140.23683055 102.14448063 144.67299188 103.74462891 149.10913086 C104.66049693 151.64826927 105.57634897 154.18741345 106.4921875 156.7265625 C106.7188422 157.35495844 106.9454969 157.98335438 107.17901993 158.63079262 C110.41234777 167.59537886 113.64352234 176.56073898 116.87343025 185.52655792 C118.95681593 191.30954165 121.04079121 197.09231288 123.125 202.875 C123.35314518 203.50802032 123.58129036 204.14104065 123.81634903 204.79324341 C130.57351679 223.54095558 137.36691978 242.27525601 144.1875 261 C151.42613668 280.87311602 158.59564558 300.77002233 165.72216797 320.68359375 C171.72814242 337.46445549 177.76274198 354.23488288 183.8125 371 C184.15535978 371.9501725 184.15535978 371.9501725 184.50514603 372.91954041 C186.59497062 378.71105892 188.68501056 384.50249969 190.77537537 390.29382324 C194.55388686 400.76231874 198.329376 411.23190217 202.10366821 421.70191956 C204.42381891 428.13791315 206.7447797 434.57361213 209.06787109 441.00854492 C209.96976443 443.50698503 210.8716065 446.00544364 211.7734375 448.50390625 C212.21287689 449.72134018 212.65231628 450.93877411 213.10507202 452.19309998 C215.65151786 459.25138578 218.18938592 466.31267323 220.71864319 473.37713623 C222.26156456 477.68509763 223.8085298 481.99160088 225.35604858 486.2979126 C226.06169351 488.26492497 226.76541721 490.23262794 227.46694946 492.20111084 C230.66933053 501.18572461 233.92429675 510.11775996 237.73046875 518.8671875 C238.00281845 519.4940596 238.27516815 520.1209317 238.55577087 520.76679993 C245.14476264 535.54464598 254.73633383 548.63253577 268 558 C268.721875 558.52078125 269.44375 559.0415625 270.1875 559.578125 C288.38936267 571.58629829 311.98556743 574.96692708 333 579 C333 587.58 333 596.16 333 605 C246.21 605 159.42 605 70 605 C70 596.42 70 587.84 70 579 C74.063125 578.5875 78.12625 578.175 82.3125 577.75 C115.281648 574.28094016 115.281648 574.28094016 142.875 557.3125 C150.73448926 547.40917193 151.19403584 536.10584154 150 524 C149.53565865 521.24101132 148.87003064 518.56897019 148.1328125 515.87109375 C147.91912521 515.07678452 147.70543793 514.28247528 147.48527527 513.46409607 C143.92990352 500.71176053 139.41606338 488.23783118 135.06840897 475.7388916 C133.78937767 472.05634107 132.51908241 468.37077892 131.24780273 464.68554688 C126.78813222 451.76617633 122.30032013 438.85659196 117.80610657 425.94920349 C116.11778967 421.10014716 114.4324989 416.25003896 112.74667358 411.40011597 C111.57986069 408.04984774 110.40708285 404.70171153 109.23364258 401.35375977 C108.53188514 399.34006876 107.83029581 397.32631917 107.12890625 395.3125 C106.64783417 393.94864418 106.64783417 393.94864418 106.15704346 392.55723572 C105.87004578 391.73010574 105.5830481 390.90297577 105.28735352 390.05078125 C105.03695816 389.33575439 104.78656281 388.62072754 104.52857971 387.8840332 C104 386 104 386 104 383 C33.05 383.33 -37.9 383.66 -111 384 C-115.95 397.2 -120.9 410.4 -126 424 C-127.89492187 429.04152344 -129.78984375 434.08304687 -131.7421875 439.27734375 C-133.67587307 444.42367156 -133.67587307 444.42367156 -135.609375 449.57006836 C-136.46329876 451.84209198 -137.31780438 454.11389698 -138.17285156 456.38549805 C-142.82572826 468.74873166 -147.44373846 481.12372395 -151.9453125 493.54296875 C-152.31042938 494.54408188 -152.67554626 495.54519501 -153.05172729 496.5766449 C-162.50325952 522.32004579 -162.50325952 522.32004579 -158.84375 548.66796875 C-150.77660937 563.48013529 -134.71853003 568.45262017 -119.47802734 572.95019531 C-113.18727868 574.74549206 -106.8831785 576.22267235 -100.45703125 577.45703125 C-98 578 -98 578 -97 579 C-97 587.58 -97 596.16 -97 605 C-160.69 605 -224.38 605 -290 605 C-290 596.09 -290 587.18 -290 578 C-287.56625 577.34 -285.1325 576.68 -282.625 576 C-247.96086666 566.06593205 -224.44913139 544.28971247 -207.0625 513.25 C-196.22122317 492.47181938 -188.06107118 470.25205608 -179.56509399 448.45126343 C-167.24773233 416.8561122 -154.53944343 385.41754903 -141.86843014 353.96298409 C-133.09226115 332.17582931 -124.32784846 310.38559638 -115.72647095 288.52876282 C-110.48292912 275.20596241 -105.19763094 261.89996928 -99.90234375 248.59765625 C-99.46193819 247.49127304 -99.02153263 246.38488983 -98.56778145 245.24497986 C-95.83089182 238.36997251 -93.09302249 231.49535566 -90.35479736 224.62088013 C-88.91303141 221.00106721 -87.47149765 217.38116191 -86.0300293 213.76123047 C-83.13369914 206.48779704 -80.23686245 199.21456545 -77.33984375 191.94140625 C-76.67720174 190.27763286 -76.67720174 190.27763286 -76.00117302 188.58024788 C-68.43391175 169.58139861 -60.84179559 150.59254362 -53.24028015 131.6073761 C-47.33821693 116.86378552 -41.46084416 102.11057627 -35.60147858 87.34996796 C-34.15813288 83.71480948 -32.71388513 80.0800102 -31.26922607 76.44537354 C-31.02272222 75.82518239 -30.77621836 75.20499124 -30.52224469 74.56600642 C-29.51923875 72.04253859 -28.51620654 69.5190812 -27.51315928 66.99562979 C-24.76178622 60.07355833 -22.01173356 53.15096851 -19.265625 46.22680664 C-16.90191633 40.26704858 -14.53503722 34.30855937 -12.16585541 28.35097504 C-11.27781318 26.11608304 -10.3910072 23.8806994 -9.50547028 21.64481354 C-8.28189769 18.55587727 -7.05407132 15.4686654 -5.82519531 12.38183594 C-5.46481171 11.469011 -5.1044281 10.55618607 -4.73312378 9.61569977 C-4.40041473 8.78246941 -4.06770569 7.94923904 -3.72491455 7.09075928 C-3.43823536 6.36853054 -3.15155617 5.6463018 -2.85618973 4.90218735 C-2 3 -2 3 0 0 Z M-6 109 C-9.27005105 116.76987102 -12.42033625 124.56533155 -15.4140625 132.4453125 C-16.02483643 134.04629036 -16.02483643 134.04629036 -16.64794922 135.67961121 C-17.97544206 139.16072099 -19.30026544 142.64283972 -20.625 146.125 C-21.56285296 148.58623321 -22.50084345 151.04741402 -23.43896484 153.50854492 C-26.29566709 161.00454695 -29.14815717 168.50214796 -32 176 C-32.42571289 177.11904724 -32.85142578 178.23809448 -33.29003906 179.39105225 C-39.19945185 194.92505498 -45.10084407 210.46209976 -51 226 C-54.12439249 234.22939747 -57.24924478 242.45862003 -60.375 250.6875 C-60.95176987 252.20602066 -60.95176987 252.20602066 -61.54019165 253.75521851 C-66.23359131 266.1104141 -70.93681464 278.46182737 -75.65234375 290.80859375 C-75.88933235 291.42912565 -76.12632095 292.04965755 -76.37049103 292.68899345 C-78.90309907 299.32009045 -81.43693294 305.95071749 -83.97216797 312.58081055 C-85.96704607 317.79864422 -87.95883509 323.01764416 -89.94732666 328.23791504 C-90.62989807 330.02889819 -91.31339449 331.81952919 -91.99798584 333.60974121 C-92.87036769 335.89226443 -93.73863202 338.17630387 -94.60546875 340.4609375 C-95.0749292 341.69376465 -95.54438965 342.9265918 -96.02807617 344.19677734 C-97.10919511 346.82045165 -97.10919511 346.82045165 -97 349 C-34.63 349 27.74 349 92 349 C81.65446314 317.9480709 81.65446314 317.9480709 71.1875 286.9375 C70.80981476 285.82523041 70.43212952 284.71296082 70.04299927 283.56698608 C64.61528071 267.58868707 59.11012675 251.63931057 53.52670288 235.71481323 C48.06110265 220.12249217 42.72965854 204.48665669 37.42880249 188.83764648 C31.68278846 171.87987772 25.83878552 154.95854684 19.90820312 138.06445312 C16.51887813 128.40321086 13.21058339 118.72227414 10 109 C4.72 109 -0.56 109 -6 109 Z " fill="#7A212E" transform="translate(1772,19)"/>
<path d="M0 0 C99.66 0 199.32 0 302 0 C302 20.13 302 40.26 302 61 C279.375 62.3125 279.375 62.3125 272.38818359 62.7043457 C262.16380486 63.30522451 252.01181829 64.11139151 241.859375 65.484375 C240.96785736 65.60456497 240.07633972 65.72475494 239.1578064 65.84858704 C226.25895958 67.63623031 226.25895958 67.63623031 216 75 C214.68024945 78.95925164 214.8658132 82.73768807 214.87974548 86.8646698 C214.87889106 87.7819488 214.87803663 88.69922781 214.87715632 89.64430314 C214.87550381 92.73058043 214.88101918 95.81680386 214.88647461 98.90307617 C214.88675656 101.11038715 214.8865986 103.31769823 214.8860321 105.52500916 C214.88574442 111.52878044 214.89163645 117.53253186 214.89860606 123.53629851 C214.90484445 129.80636861 214.90544378 136.07643912 214.90663147 142.34651184 C214.90938948 152.87415912 214.91564169 163.40179987 214.92456055 173.92944336 C214.93373793 184.77351851 214.94081717 195.61759167 214.94506836 206.46166992 C214.94533108 207.12996876 214.94559381 207.7982676 214.94586449 208.48681792 C214.94716952 211.83943796 214.94843323 215.19205802 214.94967639 218.54467809 C214.96013754 246.36312382 214.97773422 274.1815614 215 302 C218.19176092 298.83760418 221.3776081 295.66931241 224.5625 292.5 C225.45775391 291.613125 226.35300781 290.72625 227.27539062 289.8125 C231.75943931 285.3448764 236.08043351 280.82722081 240.20199585 276.02508545 C243.90509428 271.85429933 247.9094866 267.97013343 251.86328125 264.0390625 C252.83838943 263.06587802 253.81326684 262.09246227 254.78793335 261.11883545 C256.87243421 259.03747389 258.95847276 256.95767076 261.04574585 254.87908936 C264.35270451 251.58575873 267.65575114 248.2885227 270.95825195 244.99072266 C278.56421229 237.39675745 286.17519755 229.80783503 293.78623962 222.21896362 C300.76716416 215.25826984 307.74699774 208.29649112 314.72277737 201.33064079 C317.99934195 198.05902914 321.27832174 194.78986425 324.55923462 191.52261353 C326.60646855 189.48288948 328.65158308 187.44105024 330.69615555 185.39865875 C332.08262024 184.01492928 333.4716035 182.63372476 334.86068726 181.25262451 C339.22308951 176.89058796 343.42067922 172.46205643 347.44136429 167.78350258 C349.7232474 165.17240854 352.14527115 162.75075981 354.60888672 160.30932617 C355.12214508 159.79913437 355.63540344 159.28894257 356.16421509 158.76329041 C357.26357036 157.6710105 358.36405779 156.57986906 359.46560287 155.48979759 C361.21893381 153.75411753 362.9684759 152.01469605 364.71707153 150.27424622 C369.68416846 145.33137028 374.65690574 140.39419888 379.63427734 135.46166992 C382.69417699 132.42881754 385.74896885 129.39089376 388.8008461 126.34996986 C389.95256005 125.2043895 391.10615709 124.06069858 392.26180649 122.91908836 C413.3433688 103.25304493 413.3433688 103.25304493 423.0625 77.625 C420.72556284 71.85139056 414.95144048 69.65918544 409.52734375 67.29296875 C397.00659778 62.70341513 383.80696243 60.44536616 370.6484375 58.578125 C367 58 367 58 365 57 C365 38.19 365 19.38 365 0 C451.79 0 538.58 0 628 0 C628 18.81 628 37.62 628 57 C623.19462606 58.20134348 618.70491046 59.29320425 613.8671875 60.078125 C598.97059808 62.56906859 584.42445391 65.48770438 570 70 C569.30084473 70.2170459 568.60168945 70.4340918 567.88134766 70.65771484 C541.89628047 78.96603935 519.65568966 94.64223311 499 112 C498.10716309 112.74419189 498.10716309 112.74419189 497.19628906 113.50341797 C484.70684258 123.92754327 472.74008769 134.9840888 461.40625 146.65625 C459.48332875 148.52922524 457.53966731 150.2610936 455.5 152 C449.52883334 157.18094703 444.05191815 162.87927672 438.5 168.5 C426.39874904 180.7512222 426.39874904 180.7512222 420.12304688 186.09960938 C415.02896625 190.6594442 410.30331957 195.63715271 405.5 200.5 C393.39874904 212.7512222 393.39874904 212.7512222 387.12304688 218.09960938 C382.02896625 222.6594442 377.30331957 227.63715271 372.5 232.5 C365.85422282 239.22813854 359.23268277 245.89294073 352 252 C350.62947315 253.2108981 349.26952097 254.43436865 347.9375 255.6875 C347.34839844 256.22761719 346.75929688 256.76773437 346.15234375 257.32421875 C344.77180455 258.9250045 344.77180455 258.9250045 345.27490234 260.87597656 C346.05547278 263.16249603 347.01991285 264.71682193 348.44921875 266.66015625 C349.21576782 267.7119104 349.21576782 267.7119104 349.99780273 268.78491211 C350.55540283 269.53651611 351.11300293 270.28812012 351.6875 271.0625 C352.26765869 271.85470947 352.84781738 272.64691895 353.44555664 273.46313477 C355.2910031 275.97992272 357.14511473 278.49016312 359 281 C360.1619191 282.58039051 361.32338655 284.16111319 362.484375 285.7421875 C365.98182048 290.50053587 369.48998067 295.25092255 373 300 C380.42121495 310.04094886 387.81171806 320.10066404 395.10791016 330.23291016 C401.33662403 338.87249604 407.66954014 347.4348494 414 356 C421.42121495 366.04094886 428.81171806 376.10066404 436.10791016 386.23291016 C442.33662403 394.87249604 448.66954014 403.4348494 455 412 C462.42121495 422.04094886 469.81171806 432.10066404 477.10791016 442.23291016 C482.75718083 450.06877486 488.49312892 457.83992854 494.23388672 465.60888672 C496.5762763 468.78021152 498.91490663 471.95429713 501.25317383 475.12866211 C502.41548317 476.70651125 503.57807975 478.28414885 504.7409668 479.86157227 C507.71178255 483.89158097 510.67910827 487.92408929 513.640625 491.9609375 C553.00844697 545.58893027 580.16205041 566.06465186 647 578 C647 597.14 647 616.28 647 636 C550.31 636 453.62 636 354 636 C354 616.86 354 597.72 354 578 C358.351875 577.29875 362.70375 576.5975 367.1875 575.875 C376.48597909 574.30665757 385.66819518 572.56887977 394.75 570 C395.96852661 569.66331299 395.96852661 569.66331299 397.21166992 569.31982422 C402.22845093 567.82711552 406.56267172 565.7560779 411.06347656 563.0859375 C413 562 413 562 416 561 C418.2725036 554.18248921 416.83060667 549.10611848 413.9921875 542.68359375 C409.66660493 534.22818835 403.57626342 526.65159555 398 519 C396.87140545 517.43691253 395.74376417 515.87313621 394.6171875 514.30859375 C392.4658977 511.32319608 390.30886437 508.34207152 388.1484375 505.36328125 C385.06343804 501.10028661 382.02639282 496.80472284 379 492.5 C374.87613855 486.63508857 370.70685712 480.80566268 366.5 475 C361.78959343 468.49941517 357.13702392 461.9613612 352.51953125 455.39453125 C348.88545434 450.2343328 345.20328599 445.1107106 341.5 440 C336.78959343 433.49941517 332.13702392 426.9613612 327.51953125 420.39453125 C323.88545434 415.2343328 320.20328599 410.1107106 316.5 405 C311.78959343 398.49941517 307.13702392 391.9613612 302.51953125 385.39453125 C298.35264325 379.47776902 294.11799306 373.61175545 289.87084961 367.75244141 C285.57311765 361.81504882 281.33528583 355.83720488 277.1328125 349.83203125 C273.84713642 345.15017553 270.45568612 340.55772897 267 336 C265.33968507 337.41818567 263.6803886 338.83757603 262.02539062 340.26196289 C260.80104794 341.31260122 259.57192564 342.35775323 258.33398438 343.39233398 C251.3254378 349.34782874 244.96072174 355.96568176 238.5 362.5 C224.52482706 376.63436937 224.52482706 376.63436937 218.47070312 381.74804688 C215.48771477 384.19125522 215.48771477 384.19125522 214.74552441 387.9311409 C214.7424451 389.83032839 214.7424451 389.83032839 214.73930359 391.7678833 C214.73547804 392.47181331 214.73165249 393.17574333 214.72771102 393.90100455 C214.71735092 396.27164301 214.72137884 398.64204062 214.7253418 401.01269531 C214.72099686 402.70766933 214.71581444 404.40264137 214.70985413 406.09761047 C214.69642622 410.71140613 214.69588988 415.32512006 214.69841743 419.93893147 C214.69948504 423.78824646 214.69460891 427.63754478 214.689812 431.48685622 C214.67870271 440.56953785 214.67828673 449.65217814 214.68432617 458.73486328 C214.6903619 468.10632252 214.6780684 477.47763147 214.6567561 486.84906507 C214.63913994 494.89075594 214.63313895 502.93239899 214.63639385 510.97410846 C214.63820756 515.77873233 214.63556215 520.58324911 214.62167931 525.38785553 C214.60910614 529.90881318 214.61104024 534.4295369 214.62409019 538.95049095 C214.62645702 540.60890723 214.62371748 542.26733994 214.61546707 543.92573738 C214.60500612 546.19215692 214.61309453 548.45779068 214.6257782 550.72418213 C214.62561046 551.99181522 214.62544271 553.25944832 214.62526989 554.56549454 C215.03727713 558.34165526 216.04862007 560.76211 218 564 C232.93210012 575.66990707 263.98258984 573.08343325 281.86523438 573.65869141 C282.77337891 573.6901123 283.68152344 573.7215332 284.6171875 573.75390625 C285.41753418 573.77783447 286.21788086 573.8017627 287.04248047 573.82641602 C289 574 289 574 291 575 C291 595.13 291 615.26 291 636 C194.97 636 98.94 636 0 636 C0 615.87 0 595.74 0 575 C3.09517455 573.45241273 6.40810959 573.70036949 9.8125 573.5703125 C11.44989045 573.49868031 13.08725949 573.42655733 14.72460938 573.35400391 C15.58594482 573.31704407 16.44728027 573.28008423 17.3347168 573.24200439 C56.30680729 573.06899 56.30680729 573.06899 92 560 C96.99432543 554.15298487 97.14946516 548.59103467 97.13142776 541.17626476 C97.13450672 539.99863056 97.13450672 539.99863056 97.13764787 538.79720578 C97.14331928 536.15655145 97.14186044 533.51594926 97.14044189 530.87528992 C97.14302544 528.966893 97.14603857 527.05849663 97.1494453 525.15010101 C97.15751963 519.89791128 97.15930511 514.64573522 97.16004276 509.39354002 C97.16189253 503.73220491 97.16943942 498.07087691 97.17617798 492.4095459 C97.18976428 480.02746928 97.19578631 467.64539589 97.20018864 455.26331306 C97.20295021 447.53449227 97.20718737 439.80567274 97.21169281 432.0768528 C97.22388521 410.68481212 97.23422039 389.29277309 97.2375679 367.90072918 C97.23778953 366.5175818 97.23801132 365.13443441 97.23823325 363.75128703 C97.23845389 362.36480547 97.23867438 360.97832391 97.2388947 359.59184235 C97.23933725 356.81033305 97.23978437 354.02882375 97.24023438 351.24731445 C97.24034377 350.55766279 97.24045316 349.86801113 97.24056586 349.15746093 C97.24419731 326.79044171 97.26012133 304.42345488 97.28342474 282.05644807 C97.30801803 258.40816696 97.32173376 234.75990979 97.32293582 211.11161453 C97.32385329 198.22063379 97.32962387 185.32969549 97.34775543 172.43872643 C97.36313757 161.46374591 97.36828798 150.48882094 97.36001733 139.5138317 C97.35610433 133.91290203 97.35707221 128.31208427 97.37107468 122.71116829 C97.38377427 117.58459529 97.38265077 112.45821876 97.37048396 107.33164618 C97.36852014 105.47634742 97.37163689 103.62103494 97.38032833 101.7657555 C97.39139466 99.2440179 97.38395087 96.7229769 97.3719368 94.20125866 C97.38332959 93.12070877 97.38332959 93.12070877 97.39495254 92.01832959 C97.32775707 85.48545577 95.90271526 80.09298679 91.5 75.25 C79.84282598 66.73569152 62.48705792 65.67187335 48.625 64.4375 C47.3145874 64.31528076 46.0041748 64.19306152 44.65405273 64.06713867 C29.79089059 62.70868298 14.89938052 61.8608531 0 61 C0 40.87 0 20.74 0 0 Z M8 8 C8 22.85 8 37.7 8 53 C11.89049469 53.97262367 15.24148119 54.24674149 19.23828125 54.4296875 C20.70217359 54.50127788 22.1660399 54.57340209 23.62988281 54.64599609 C24.39449829 54.68295593 25.15911377 54.71991577 25.94689941 54.75799561 C84.94793953 57.67623168 84.94793953 57.67623168 99.00390625 70.8828125 C104.36564413 77.47193616 105.30494897 84.92800534 105.25447559 93.21852684 C105.25768207 94.00985539 105.26088855 94.80118395 105.26419219 95.61649215 C105.27247424 98.26038381 105.26657422 100.90404787 105.26069641 103.54794312 C105.26371791 105.46575431 105.26760738 107.38356431 105.27228898 109.30137217 C105.28257787 114.56574383 105.28038487 119.83004746 105.27610838 125.09442472 C105.27364279 130.7741542 105.28265324 136.45386723 105.29014587 142.1335907 C105.30289945 153.2585255 105.30468575 164.38343618 105.30234561 175.50837706 C105.30056306 184.55034274 105.30231075 193.59230109 105.30657005 202.6342659 C105.30716524 203.92083773 105.30776043 205.20740956 105.30837366 206.53296841 C105.3095854 209.14658383 105.31079953 211.76019924 105.31201603 214.37381466 C105.31980387 231.92399179 105.32372194 249.47416501 105.31969929 267.02434349 C105.31954291 267.7104932 105.31938654 268.39664291 105.31922542 269.10358503 C105.31841965 272.58117422 105.31757388 276.05876339 105.31671212 279.53635256 C105.31654103 280.22699881 105.31636994 280.91764507 105.31619367 281.62921999 C105.31584702 283.02587393 105.31549849 284.42252788 105.31514808 285.81918182 C105.30979083 307.55134559 105.31772195 329.28346879 105.33618164 351.015625 C105.35690262 375.43847434 105.3675931 399.86129433 105.36360615 424.28415358 C105.36169282 437.21315606 105.36419459 450.14212157 105.37832069 463.0711174 C105.39022437 474.07744615 105.39165072 485.08371517 105.37953053 496.09004472 C105.37363481 501.70541689 105.37256165 507.32067976 105.38453293 512.93604469 C105.39536762 518.07802734 105.39231702 523.21980911 105.37827124 528.36178227 C105.37561768 530.22038968 105.3780115 532.07901272 105.38600711 533.93760483 C105.48078844 557.61613439 105.48078844 557.61613439 97.12109375 566.25390625 C75.63359165 583.94251295 33.98875712 580.6266104 8 582 C8 597.18 8 612.36 8 628 C98.75 628 189.5 628 283 628 C283 612.82 283 597.64 283 582 C269.89912536 581.13714555 269.89912536 581.13714555 256.796875 580.2956543 C219.98708013 577.84302483 219.98708013 577.84302483 211.5 568.625 C207.37753047 563.56778448 206.74547936 557.96703726 206.65855408 551.6151123 C206.64011557 550.53193088 206.64011557 550.53193088 206.62130457 549.42686701 C206.58303125 547.01833633 206.55881736 544.60988492 206.53491211 542.20117188 C206.51090685 540.46932102 206.48625757 538.73747899 206.46101379 537.00564575 C206.38291917 531.32681762 206.32735501 525.6478877 206.27734375 519.96875 C206.26453334 518.51638034 206.26453334 518.51638034 206.25146413 517.03466988 C206.17299392 507.89240966 206.10541958 498.75010717 206.05855465 489.60762787 C205.99779013 477.94181612 205.88753827 466.27876961 205.71056932 454.61412764 C205.59014447 446.3964797 205.52773862 438.17958039 205.50733191 429.96108294 C205.49356061 425.05986637 205.45469906 420.16194879 205.35291862 415.26170349 C204.68209704 381.46251157 204.68209704 381.46251157 212.15982914 373.5932312 C214.6716425 371.49278997 217.24540894 369.77861655 220.0994072 368.18028831 C223.34931845 366.16205891 225.82879791 363.39975381 228.43359375 360.62890625 C229.43964697 359.61024408 230.44780059 358.59364759 231.45898438 357.58007812 C232.45213932 356.57453116 233.44497683 355.56867057 234.4375 354.5625 C240.20200029 348.72068564 245.93794081 342.92426554 252.18383789 337.58911133 C255.26633398 334.89197904 258.12690966 331.97912201 261 329.0625 C261.58394531 328.47404297 262.16789063 327.88558594 262.76953125 327.27929688 C264.18204805 325.85520207 265.5913781 324.4279475 267 323 C271.13361011 326.87151527 274.30023033 331.02743277 277.5 335.6875 C278.56155133 337.21290022 279.62408436 338.73761763 280.6875 340.26171875 C281.50541016 341.43613525 281.50541016 341.43613525 282.33984375 342.63427734 C285.01919927 346.45235896 287.75971642 350.22553077 290.5 354 C295.21105563 360.50010841 299.86298282 367.03864839 304.48046875 373.60546875 C308.11454566 378.7656672 311.79671401 383.8892894 315.5 389 C320.21040657 395.50058483 324.86297608 402.0386388 329.48046875 408.60546875 C333.11454566 413.7656672 336.79671401 418.8892894 340.5 424 C345.21040657 430.50058483 349.86297608 437.0386388 354.48046875 443.60546875 C358.11454566 448.7656672 361.79671401 453.8892894 365.5 459 C370.21040657 465.50058483 374.86297608 472.0386388 379.48046875 478.60546875 C383.11454882 483.76567169 386.79701024 488.88907116 390.5 494 C396.73745308 502.61752163 402.92370063 511.26793155 409 520 C409.46599609 520.66692871 409.93199219 521.33385742 410.41210938 522.02099609 C418.53881554 533.7038526 426.47107427 545.16133781 425 560 C421.61385166 567.47774425 414.65418007 571.51931655 407.3125 574.5625 C392.69376032 579.83066691 377.23947154 582.31068149 362 585 C362 599.19 362 613.38 362 628 C453.41 628 544.82 628 639 628 C639 613.81 639 599.62 639 585 C634.2975 584.13375 629.595 583.2675 624.75 582.375 C600.39222816 577.7036117 575.36381166 571.43974614 556 555 C555.19046875 554.32710937 554.3809375 553.65421875 553.546875 552.9609375 C542.93438045 543.7834658 533.87294258 533.22144567 525.50195312 521.99951172 C523.74108404 519.65531182 521.9574916 517.32930968 520.171875 515.00390625 C513.90168093 506.83203515 507.65761241 498.6551694 501.7199707 490.23754883 C498.27566369 485.35864973 494.73871207 480.55151656 491.1875 475.75 C486.58700117 469.52682049 482.02071566 463.28137912 477.5 457 C470.74024399 447.61213466 463.87582562 438.30303378 457 429 C449.57878505 418.95905114 442.18828194 408.89933596 434.89208984 398.76708984 C428.66337597 390.12750396 422.33045986 381.5651506 416 373 C408.57878505 362.95905114 401.18828194 352.89933596 393.89208984 342.76708984 C387.66337597 334.12750396 381.33045986 325.5651506 375 317 C367.58811945 306.97168065 360.18415716 296.93984502 352.92504883 286.80004883 C350.01918376 282.75130243 347.0631972 278.75045928 344.0390625 274.7890625 C343.38615234 273.92667969 342.73324219 273.06429688 342.06054688 272.17578125 C340.79372497 270.50628639 339.51672533 268.84445392 338.22851562 267.19140625 C337.66068359 266.43988281 337.09285156 265.68835938 336.5078125 264.9140625 C335.99879395 264.2535791 335.48977539 263.5930957 334.96533203 262.91259766 C334 261 334 261 334.2043457 258.91479492 C335.47668564 255.85282434 337.70245889 253.98261564 340.0625 251.6875 C340.98160156 250.78386719 341.90070313 249.88023437 342.84765625 248.94921875 C345.03560488 246.86489136 347.29107397 244.88665523 349.58984375 242.92578125 C355.52844947 237.76836693 360.97607653 232.09238166 366.5 226.5 C378.60125096 214.2487778 378.60125096 214.2487778 384.87695312 208.90039062 C389.97103375 204.3405558 394.69668043 199.36284729 399.5 194.5 C411.60125096 182.2487778 411.60125096 182.2487778 417.87695312 176.90039062 C422.97103375 172.3405558 427.69668043 167.36284729 432.5 162.5 C444.83190567 150.01526457 444.83190567 150.01526457 451.12695312 144.65039062 C454.76000659 141.44921213 458.10866572 137.95310722 461.5 134.5 C466.24347655 129.67012133 471.03527512 125.00134751 476.16894531 120.5859375 C478.71976631 118.37658641 481.1657678 116.06040259 483.625 113.75 C489.5724077 108.24073171 495.85759187 103.24840273 502.29150391 98.32324219 C503.90385026 97.07446865 505.49000733 95.79209062 507.07421875 94.5078125 C537.71688064 69.94660079 574.13735837 57.76913084 612.54394531 51.89941406 C616.38955325 51.35261947 616.38955325 51.35261947 620 50 C620 36.14 620 22.28 620 8 C538.49 8 456.98 8 373 8 C373 21.86 373 35.72 373 50 C377.5647531 51.14118828 381.97841618 52.24103298 386.57421875 53.11328125 C420.83740065 59.794365 420.83740065 59.794365 428.4375 69.9140625 C431.34184681 75.13785294 431.83519351 79.56519754 430.41015625 85.42578125 C426.86276469 96.72185298 419.32743428 105.96095614 411.3359375 114.48828125 C409.44112215 116.52568304 407.6189074 118.5934065 405.80407715 120.70080566 C402.28508338 124.72797786 398.59486905 128.53402883 394.79882812 132.29882812 C394.11654648 132.97964951 393.43426483 133.66047089 392.73130798 134.36192322 C391.2636378 135.82581604 389.79481458 137.28855359 388.32493591 138.75022888 C385.99289308 141.06939513 383.66408732 143.39176959 381.33605957 145.71496582 C375.55612674 151.48159768 369.77074443 157.24275234 363.98553467 163.00408936 C359.08688544 167.8829451 354.19033173 172.76388608 349.29649353 177.64756775 C347.01258482 179.92503874 344.72566354 182.19945406 342.43859863 184.47375488 C341.02597368 185.88274414 339.61349071 187.29187578 338.20117188 188.70117188 C337.57343369 189.32374374 336.9456955 189.94631561 336.29893494 190.5877533 C333.30476106 193.58157356 330.42675561 196.62220276 327.66638184 199.83361816 C323.39070811 204.77736185 318.76984915 209.35443518 314.13671875 213.9609375 C313.16161057 214.93412198 312.18673316 215.90753773 311.21206665 216.88116455 C309.12756579 218.96252611 307.04152724 221.04232924 304.95425415 223.12091064 C301.64729549 226.41424127 298.34424886 229.7114773 295.04174805 233.00927734 C287.43578771 240.60324255 279.82480245 248.19216497 272.21376038 255.78103638 C265.23283584 262.74173016 258.25300226 269.70350888 251.27722263 276.66935921 C248.00065805 279.94097086 244.72167826 283.21013575 241.44076538 286.47738647 C239.39353145 288.51711052 237.34841692 290.55894976 235.30384445 292.60134125 C233.91737976 293.98507072 232.5283965 295.36627524 231.13931274 296.74737549 C226.87891396 301.00741712 222.79296836 305.3288075 218.87590027 309.90487671 C215.10530674 314.11611249 211.03201002 318.04100425 207 322 C206.93154159 290.92463466 206.87846033 259.84928928 206.84680401 228.77386642 C206.84305195 225.1039642 206.83916898 221.43406214 206.83520508 217.76416016 C206.83441815 217.03355802 206.83363122 216.30295588 206.83282044 215.55021429 C206.8197715 203.7250854 206.79612048 191.90000032 206.76854161 180.07489741 C206.74047316 167.93852833 206.7238207 155.80218218 206.71773452 143.66578197 C206.71362105 136.17878356 206.70063556 128.69190901 206.6762506 121.20494872 C206.65849723 115.46101846 206.65663802 109.71716732 206.66067696 103.9732151 C206.6598517 101.61900889 206.65388526 99.26479799 206.64238358 96.91061974 C206.62744223 93.69463566 206.63105276 90.47918008 206.63923645 87.26318359 C206.63049793 86.33320399 206.6217594 85.40322439 206.61275607 84.44506359 C206.66112249 77.40558323 207.58731981 71.58921776 212.5625 66.25 C230.90287183 52.98439125 261.62294343 55.08326737 283.09643555 54.34130859 C283.94761963 54.3098877 284.79880371 54.2784668 285.67578125 54.24609375 C286.41739502 54.22216553 287.15900879 54.1982373 287.9230957 54.17358398 C290.3478103 54.0270125 290.3478103 54.0270125 294 53 C294 38.15 294 23.3 294 8 C199.62 8 105.24 8 8 8 Z " fill="#896E4B" transform="translate(752,8)"/>
<path d="M0 0 C227.04 0 454.08 0 688 0 C688 22.11 688 44.22 688 67 C678.409375 67.4021875 678.409375 67.4021875 668.625 67.8125 C629.68014867 67.3744682 629.68014867 67.3744682 595 81 C592.16116651 85.66581582 591.57045592 89.57259362 591.62247658 94.92113495 C591.61811626 95.7046007 591.61375593 96.48806646 591.60926348 97.2952736 C591.59830201 99.92452328 591.60873333 102.55324913 591.61904907 105.18249512 C591.61559287 107.08493299 591.61082855 108.98736887 591.60486734 110.88980055 C591.59232265 116.12084065 591.59854353 121.35171695 591.60782599 126.58275771 C591.61460193 132.2229129 591.60414248 137.86303953 591.59588623 143.50318909 C591.58253116 154.55354201 591.58543455 165.60383389 591.59412415 176.65418923 C591.60089331 185.63331042 591.60182075 194.61241447 591.5985527 203.59153748 C591.598093 204.86843373 591.59763331 206.14532999 591.59715968 207.46092007 C591.59620052 210.05473348 591.59522788 212.64854689 591.5942419 215.24236029 C591.58592691 238.88299717 591.59455674 262.5235947 591.61026969 286.16422521 C591.62450666 307.74833596 591.62323279 329.33239362 591.60888672 350.91650391 C591.59282511 375.16277926 591.58650683 399.40901704 591.59572351 423.65529871 C591.59667918 426.23968664 591.59762229 428.82407458 591.5985527 431.40846252 C591.59924694 433.31592348 591.59924694 433.31592348 591.59995521 435.26191899 C591.60254785 444.23251683 591.5981682 453.20309587 591.59111404 462.1736908 C591.58270903 473.10259945 591.58495816 484.03144345 591.60095628 494.96034467 C591.60885242 500.53874991 591.61190769 506.11704725 591.60200882 511.69545174 C591.59308929 516.79906838 591.59794951 521.90247681 591.61394148 527.00607449 C591.61730091 528.85524732 591.61556923 530.70443764 591.60831411 532.5535993 C591.59922418 535.0622732 591.60851494 537.57022894 591.62247658 540.07886505 C591.61545308 540.80099113 591.60842958 541.52311721 591.60119325 542.2671259 C591.66449478 547.93730819 593.11578249 551.93343886 596.9375 556.125 C621.11844026 570.9296573 660.95460196 567.576558 688 569 C688 591.11 688 613.22 688 636 C587.02 636 486.04 636 382 636 C382 613.89 382 591.78 382 569 C407.75 567.6875 407.75 567.6875 415.74121094 567.2956543 C426.29760598 566.75014335 436.7996 566.11007984 447.265625 564.58203125 C448.04371521 564.47074387 448.82180542 564.35945648 449.62347412 564.24479675 C454.72779219 563.42636759 459.20362129 561.92774808 464 560 C464.99 559.67 465.98 559.34 467 559 C469.11879914 554.37383519 469.28511658 549.92345065 469.25726891 544.92269135 C469.26252802 543.72216711 469.26252802 543.72216711 469.26789337 542.49738985 C469.27721029 539.81081278 469.27228331 537.12445232 469.26742554 534.43786621 C469.27116163 532.49418127 469.27576298 530.55049782 469.28115618 528.60681677 C469.29340628 523.26179809 469.29312336 517.91684191 469.29076743 512.57181239 C469.29035978 506.80895822 469.30139331 501.04612422 469.31088257 495.28327942 C469.32750362 483.99230813 469.33299258 472.70135773 469.33410732 461.41037524 C469.3350571 452.23579462 469.33916384 443.0612209 469.34550858 433.88664246 C469.36025589 412.1196822 469.37255803 390.35272786 469.37151146 368.58576202 C469.3714803 367.88968225 469.37144914 367.19360247 469.37141704 366.47642937 C469.37125083 362.94836739 469.37105274 359.42030542 469.37084763 355.89224344 C469.37080774 355.19155009 469.37076785 354.49085673 469.37072675 353.76893023 C469.37064587 352.35195868 469.37056228 350.93498714 469.37047596 349.51801559 C469.36925 327.46396972 469.38427232 305.40998531 469.41162109 283.35595703 C469.44232972 258.58230779 469.45952905 233.80870047 469.45769465 209.03503084 C469.45702981 195.91608165 469.46256335 182.79720178 469.48405075 169.67826843 C469.50222334 158.51146729 469.50664208 147.34476691 469.4930319 136.17795742 C469.48648295 130.47800183 469.48645454 124.77823979 469.5037384 119.07830238 C469.51938866 113.86361701 469.51668823 108.64927997 469.49917014 103.43460351 C469.49608247 101.54505048 469.49979854 99.65547196 469.51089029 97.76594895 C469.52494439 95.20264352 469.51447853 92.6405713 469.49777794 90.07730865 C469.5077143 89.33913912 469.51765066 88.60096958 469.52788812 87.84043127 C469.45788457 82.77830164 468.17777984 79.90331362 465 76 C458.41603114 71.68952387 450.20394882 71.0623833 442.5625 70.3125 C441.52673828 70.19583984 440.49097656 70.07917969 439.42382812 69.95898438 C420.39686371 67.9240764 401.35175181 67.83640444 382.23782444 67.83274293 C380.11328697 67.83202197 377.98875559 67.82986835 375.86421967 67.82724571 C368.39140933 67.81804487 360.91861659 67.8139037 353.44580078 67.81469727 C346.58012202 67.81529492 339.7145226 67.80479101 332.84886384 67.7889536 C326.87436898 67.7756842 320.8998994 67.77052139 314.92539001 67.77115268 C311.39288124 67.77140229 307.86044303 67.76886134 304.32794952 67.75797462 C261.08360213 65.45402864 261.08360213 65.45402864 221 77 C217.56446069 82.33756799 217.85355093 88.79179479 217.86857224 94.92837238 C217.86549328 96.10475539 217.86549328 96.10475539 217.86235213 97.30490372 C217.85669105 99.93670884 217.85813828 102.56846148 217.85955811 105.20027161 C217.85697397 107.10469408 217.85396068 109.00911602 217.8505547 110.9135372 C217.84248736 116.1501354 217.84069528 121.38671989 217.83995724 126.62332356 C217.83810626 132.2696635 217.83055878 137.91599633 217.82382202 143.56233215 C217.81024084 155.90929385 217.80421453 168.2562523 217.79981136 180.60322022 C217.79704902 188.31111549 217.79281172 196.0190095 217.78830719 203.72690392 C217.77611564 225.06408158 217.76578018 246.40125772 217.7624321 267.73843861 C217.76221047 269.11779377 217.76198868 270.49714894 217.76176675 271.8765041 C217.76154611 273.25916899 217.76132562 274.64183388 217.7611053 276.02449876 C217.76066275 278.79831493 217.76021563 281.5721311 217.75976562 284.34594727 C217.75965623 285.03369044 217.75954684 285.72143362 217.75943414 286.43001749 C217.75580274 308.73486212 217.73987847 331.03967425 217.71657526 353.34450644 C217.69197809 376.93100787 217.67826607 400.51748417 217.67706418 424.10400027 C217.67614694 436.9597865 217.67038207 449.81553018 217.65224457 462.6713047 C217.63685742 473.61622223 217.63171501 484.56108405 217.63998267 495.50601033 C217.64389384 501.09086885 217.64293666 506.67561513 217.62892532 512.2604599 C217.61621489 517.3734757 217.61735885 522.48629459 217.62951604 527.59931 C217.63147796 529.44854018 217.62837179 531.29778417 217.61967167 533.14699493 C216.91426867 547.47125298 216.91426867 547.47125298 222.77734375 559.8671875 C239.70058673 567.76266072 261.02307578 566.79375036 279.25 567.6875 C291.99625 568.3371875 291.99625 568.3371875 305 569 C305 591.11 305 613.22 305 636 C204.35 636 103.7 636 0 636 C0 613.89 0 591.78 0 569 C22.5625 567.6875 22.5625 567.6875 29.52172852 567.2956543 C39.92417005 566.68285485 50.25752945 565.8519546 60.59375 564.51171875 C61.52582779 564.3910051 62.45790558 564.27029144 63.41822815 564.1459198 C79.42203659 562.01009757 79.42203659 562.01009757 93 554 C97.12878928 545.33975488 96.41537824 536.06812603 96.3742218 526.69125366 C96.3769639 524.81168856 96.38101727 522.93212499 96.38626546 521.05256522 C96.39683892 515.89863716 96.38873193 510.74488287 96.37751496 505.59096241 C96.36866648 500.02855495 96.3771183 494.46617006 96.38337708 488.90376282 C96.39286293 478.01189918 96.38626726 467.12010182 96.37411413 456.2282431 C96.360491 443.54647306 96.36213224 430.86471879 96.36424746 418.1829433 C96.36753334 394.87461619 96.35462619 371.56632651 96.33440243 348.25801152 C96.316029 326.98222019 96.31022143 305.70646248 96.31567383 284.43066406 C96.31602026 283.06423916 96.31636636 281.69781426 96.31671212 280.33138935 C96.31696861 279.31808433 96.31696861 279.31808433 96.31723029 278.28430849 C96.31808384 274.883709 96.31890762 271.4831095 96.31969929 268.08250999 C96.31985637 267.41161534 96.32001345 266.74072069 96.32017529 266.0494959 C96.32416527 248.26718937 96.31864454 230.48488577 96.310188 212.70258105 C96.30898069 210.15388974 96.30777471 207.60519842 96.30657005 205.05650711 C96.30596651 203.80247681 96.30536298 202.54844652 96.30474115 201.2564153 C96.30085991 192.41399765 96.3012564 183.57158603 96.3031559 174.72916794 C96.30527658 163.95664343 96.30006322 153.18415126 96.28554235 142.41163586 C96.27829218 136.91411837 96.27422668 131.416648 96.27878571 125.91912651 C96.2828562 120.88839887 96.27771344 115.85776862 96.26515963 110.82705577 C96.26222709 109.00554565 96.26267136 107.18402638 96.26680271 105.36251859 C96.2719044 102.88892881 96.26472835 100.41566557 96.25447559 97.94209862 C96.25887208 97.23308316 96.26326856 96.52406771 96.26779827 95.79356694 C96.22082725 89.85327385 95.63219448 84.79959904 91.5625 80.3125 C73.39208654 67.02238944 41.27656728 68.79113355 19.8125 67.875 C13.274375 67.58625 6.73625 67.2975 0 67 C0 44.89 0 22.78 0 0 Z M7 8 C7 24.83 7 41.66 7 59 C21.1921832 59.86168088 21.1921832 59.86168088 35.38549805 60.7043457 C45.1186697 61.30092174 54.77942016 62.09328893 64.4375 63.4609375 C65.68191109 63.63650932 65.68191109 63.63650932 66.95146179 63.81562805 C79.07875278 65.64282106 92.27574779 67.98502249 100.51710534 77.80831486 C106.22780347 86.24859898 104.28029868 99.67957838 104.25396729 109.49110413 C104.25627411 111.3661314 104.25945213 113.24115777 104.26342177 115.11618227 C104.27174778 120.24836256 104.26765448 125.38046819 104.26144934 130.5126487 C104.25691691 136.05530745 104.26391252 141.59795352 104.26940918 147.14060974 C104.27829619 157.99041159 104.27638429 168.84018575 104.2705839 179.68998868 C104.26606493 188.50829328 104.26545552 197.32659013 104.26763153 206.14489555 C104.267938 207.40053194 104.26824446 208.65616832 104.26856022 209.9498543 C104.26919967 212.50073811 104.2698481 215.05162192 104.2705054 217.60250574 C104.27604412 240.83280816 104.27030302 264.06309437 104.2598202 287.29339336 C104.2503283 308.48897931 104.25117971 329.68454122 104.26074219 350.88012695 C104.27145664 374.70859701 104.27565845 398.53705381 104.26951766 422.36552709 C104.26888057 424.90665813 104.26825183 427.44778917 104.26763153 429.98892021 C104.2671687 431.86430132 104.2671687 431.86430132 104.26669653 433.77756893 C104.26497019 442.58503868 104.26788335 451.3924999 104.27259064 460.19996834 C104.27820134 470.93356196 104.27667896 481.66712633 104.26602915 492.40071661 C104.26077519 497.87634378 104.25871107 503.35192218 104.26532745 508.82754898 C104.27129457 513.84169675 104.26799912 518.85575063 104.25737235 523.86988991 C104.25514159 525.68197375 104.25626733 527.49406554 104.26112393 529.30614424 C104.32184039 553.84633851 104.32184039 553.84633851 98 561 C79.66538547 576.43729273 44.23550806 574.75989825 21.64477539 575.65869141 C20.88672607 575.6901123 20.12867676 575.7215332 19.34765625 575.75390625 C18.69804932 575.77783447 18.04844238 575.8017627 17.37915039 575.82641602 C13.90661768 576.07977371 10.4548764 576.56814045 7 577 C7 593.83 7 610.66 7 628 C102.7 628 198.4 628 297 628 C297 611.17 297 594.34 297 577 C291.95056016 576.27865145 287.10116284 575.7805958 282.03125 575.5703125 C280.48548717 575.49879421 278.93975236 575.4266681 277.39404297 575.35400391 C276.59432068 575.31704407 275.79459839 575.28008423 274.97064209 575.24200439 C227.66229819 573.00158108 227.66229819 573.00158108 214 564 C209.44219151 557.16328727 209.84852868 548.6482794 209.87136555 540.69245338 C209.86961251 539.90364733 209.86785947 539.11484128 209.86605331 538.30213201 C209.86142094 535.67288983 209.86385164 533.04370363 209.86628723 530.41445923 C209.86441787 528.50474833 209.86211667 526.5950378 209.85942191 524.68532789 C209.85331308 519.44796574 209.85343642 514.21061958 209.85461628 508.97325468 C209.85482052 503.32079542 209.84929941 497.66834127 209.84455872 492.0158844 C209.83625696 480.94623595 209.8335041 469.87659283 209.83294634 458.80694152 C209.83247102 449.80934671 209.83041546 440.81175365 209.82724571 431.81415939 C209.81987326 410.4519862 209.81372073 389.08981465 209.81424427 367.72764015 C209.81426764 366.70345102 209.81426764 366.70345102 209.81429148 365.6585712 C209.81437458 362.19805391 209.81447362 358.73753662 209.81457619 355.27701934 C209.81459613 354.5897725 209.81461608 353.90252566 209.81463663 353.19445317 C209.81467706 351.80467401 209.81471886 350.41489484 209.81476202 349.02511568 C209.81537483 327.40020061 209.80786611 305.77530121 209.79418945 284.15039062 C209.77882315 259.84399076 209.7702362 235.53760439 209.77115268 211.23119867 C209.7714847 198.36534372 209.76873492 185.49950645 209.75797462 172.63365555 C209.74887321 161.68119019 209.74669149 150.72875054 209.75348405 139.77628304 C209.75675086 134.18915459 209.75680003 128.60207547 209.7481308 123.01495171 C209.74027226 117.89766883 209.74169068 112.78047445 209.75041493 107.66319375 C209.75195132 105.81469208 209.75012854 103.96618383 209.74455485 102.11768992 C209.67911888 78.87146979 209.67911888 78.87146979 213.8125 71.9765625 C234.08362275 53.66015516 284.02942952 59.68989798 309.375 59.734375 C312.1710626 59.73392455 314.96712218 59.73107481 317.76318359 59.72857666 C323.56805372 59.72498596 329.37287218 59.72960438 335.17773438 59.73925781 C341.79146406 59.75013269 348.40507021 59.74660357 355.01879692 59.735605 C360.80245929 59.72638935 366.58608551 59.7253149 372.36975288 59.73048234 C375.77800855 59.7335254 379.18616282 59.73339026 382.59442139 59.72740936 C457.91010455 59.62416271 457.91010455 59.62416271 473.0625 71.375 C476.91884157 76.59972084 477.29171251 81.8350058 477.25447559 88.1526022 C477.25768207 88.96109396 477.26088855 89.76958572 477.26419219 90.60257724 C477.27250608 93.31686488 477.26656303 96.03093267 477.26069641 98.745224 C477.26371645 100.70881994 477.26760519 102.6724147 477.27228898 104.63600737 C477.28259659 110.03610631 477.28038013 115.43613907 477.27610838 120.83624351 C477.27364619 126.65841956 477.28264899 132.48057946 477.29014587 138.30274963 C477.30290877 149.71036589 477.3046846 161.11795862 477.30234561 172.52558082 C477.30056416 181.79549957 477.30230838 191.06541116 477.30657005 200.33532906 C477.30716524 201.65356701 477.30776043 202.97180496 477.30837366 204.32998951 C477.3092809 206.33648037 477.31018957 208.34297123 477.31110601 210.34946209 C477.31953609 229.0057027 477.32387082 247.6619407 477.31969929 266.31818295 C477.31954291 267.0215518 477.31938654 267.72492066 477.31922542 268.44960373 C477.31841963 272.0146005 477.31757386 275.57959725 477.31671212 279.14459401 C477.31645549 280.2066343 477.31645549 280.2066343 477.31619367 281.29012995 C477.31584702 282.72193201 477.31549849 284.15373407 477.31514808 285.58553613 C477.30979005 307.86783075 477.3177234 330.15008581 477.33618164 352.43237305 C477.35689265 377.46349248 477.36762613 402.4945874 477.36360615 427.52571589 C477.36164231 440.78049818 477.36420819 454.03524596 477.37832069 467.2900219 C477.39021219 478.57316381 477.39166445 489.85624748 477.37953053 501.13939016 C477.3736263 506.89816968 477.37258499 512.65684255 477.38453293 518.41561508 C477.39533907 523.68519818 477.3923514 528.95458489 477.37827124 534.22415859 C477.37560975 536.1325702 477.37803609 538.04099693 477.38600711 539.94939374 C477.39607965 542.540353 477.38771995 545.13062519 477.37473011 547.72155666 C477.38203946 548.46512091 477.3893488 549.20868516 477.39687964 549.97478166 C477.33467926 555.94674374 476.07738183 560.6545689 472.0625 565.1875 C454.48421907 575.59097239 430.56322078 574.43573542 410.74438477 575.35400391 C409.57255898 575.4090509 409.57255898 575.4090509 408.37705994 575.46520996 C406.91338938 575.53281518 405.44957611 575.59743178 403.98561096 575.6583252 C399.24809671 575.87340616 394.73957474 576.40755316 390 577 C390 593.83 390 610.66 390 628 C485.7 628 581.4 628 680 628 C680 611.17 680 594.34 680 577 C675.12530256 576.30361465 670.5728426 575.80430671 665.6875 575.5703125 C664.27902466 575.49876008 662.87057834 575.42663483 661.4621582 575.35400391 C660.73356598 575.31704407 660.00497375 575.28008423 659.25430298 575.24200439 C600.00104763 572.1666009 600.00104763 572.1666009 588 559.125 C584.31770265 553.37141039 583.7045697 547.63444916 583.74273109 540.93575573 C583.73922502 540.14895777 583.73571895 539.36215981 583.73210663 538.55151948 C583.72280824 535.9170218 583.7277119 533.28274592 583.73257446 530.64823914 C583.72883742 528.73954028 583.72423569 526.83084295 583.71884382 524.92214805 C583.70660517 519.67832341 583.70687531 514.43456254 583.70923257 509.19072688 C583.70964051 503.53483574 583.69860376 497.8789651 583.68911743 492.2230835 C583.67250198 481.14279914 583.66700765 470.06253606 583.66589268 458.98224028 C583.66494251 449.97648222 583.6608338 440.97073119 583.65449142 431.96497536 C583.63974414 410.59001338 583.62744184 389.21505796 583.62848854 367.84009075 C583.6285197 367.15664075 583.62855086 366.47319074 583.62858296 365.76903013 C583.62874917 362.30508323 583.62894725 358.84113632 583.62915237 355.37718942 C583.62921221 354.34527535 583.62921221 354.34527535 583.62927325 353.29251453 C583.62935413 351.9013271 583.62943772 350.51013967 583.62952404 349.11895225 C583.63074955 327.47421278 583.61573563 305.82953599 583.58837891 284.18481445 C583.55765082 259.86268354 583.54047217 235.54060426 583.54230535 211.21845084 C583.5429696 198.34195695 583.53746181 185.46553373 583.51594925 172.58905602 C583.49775188 161.62660864 583.49337833 150.66426398 583.5069681 139.70180806 C583.51350483 134.10868768 583.51358928 128.51576444 583.4962616 122.92266273 C583.48055744 117.80094407 583.48336754 112.67957931 583.50082986 107.55786941 C583.50390557 105.70663281 583.50024591 103.85536996 583.48910971 102.0041643 C583.38167851 82.87626261 583.38167851 82.87626261 588 76 C608.58671568 56.81068795 654.09730634 60.43903854 680 59 C680 42.17 680 25.34 680 8 C457.91 8 235.82 8 7 8 Z " fill="#886E4B" transform="translate(0,8)"/>
<path d="M0 0 C25.74 0 51.48 0 78 0 C80.3925 6.785625 82.785 13.57125 85.25 20.5625 C91.61802051 38.57498963 98.07891282 56.55149701 104.625 74.5 C111.927163 94.52318307 119.17490704 114.56495353 126.375 134.625 C126.86027348 135.97685997 127.34555384 137.32871747 127.83084106 138.68057251 C128.07142337 139.35076259 128.31200567 140.02095266 128.55987835 140.71145153 C129.5324654 143.42077165 130.50505482 146.13009092 131.47767448 148.83939934 C131.96401439 150.1941466 132.4503387 151.54889946 132.93664742 152.90365791 C138.29735975 167.83686348 143.67763928 182.76298809 149.0625 197.6875 C149.51886172 198.95241225 149.97522158 200.21732518 150.43157959 201.48223877 C152.25446413 206.53474396 154.07746824 211.58720599 155.9006958 216.6395874 C160.24753156 228.68519978 164.59215949 240.73160794 168.93646145 252.77813435 C170.53941747 257.22300172 172.14258812 261.66779163 173.74584961 266.11254883 C178.12377752 278.24980763 182.50038683 290.3875383 186.87343025 302.52655792 C188.95681593 308.30954165 191.04079121 314.09231288 193.125 319.875 C193.35314518 320.50802032 193.58129036 321.14104065 193.81634903 321.79324341 C200.57351679 340.54095558 207.36691978 359.27525601 214.1875 378 C220.63141925 395.69128089 227.02894114 413.39838101 233.375 431.125 C234.14635161 433.27825734 234.91775468 435.43149625 235.68920898 437.5847168 C239.08165689 447.05469357 242.47316421 456.52500062 245.85839844 465.99755859 C248.08789328 472.23575078 250.32193752 478.47229782 252.56024742 484.70733261 C253.76228059 488.05621291 254.96239413 491.40574954 256.15740967 494.75714111 C270.0027424 537.30390371 270.0027424 537.30390371 302.0625 566.125 C317.8722395 573.01548762 334.30196589 575.67990887 351.24536133 578.39331055 C356.50014644 579.24239963 361.74948168 580.12491361 367 581 C367 601.79 367 622.58 367 644 C267.34 644 167.68 644 65 644 C65 622.88 65 601.76 65 580 C70.32125 579.5875 75.6425 579.175 81.125 578.75 C113.54607783 577.25218471 113.54607783 577.25218471 142 564 C145.80270896 557.82059794 145.76139087 551.94001927 144.42724609 545.03613281 C141.14918932 531.31890164 136.45473893 518.05349674 131.88508606 504.72495651 C130.94550444 501.9806977 130.01112171 499.23468067 129.07673836 496.48864841 C122.60908702 477.48337548 116.05380324 458.50834564 109.35620117 439.58276367 C109.0646666 438.7554071 108.77313202 437.92805054 108.47276306 437.07562256 C107.93941542 435.5625133 107.40341081 434.05033641 106.86402893 432.53936768 C105.61902388 429.00171595 104.7403947 425.7019735 104 422 C10.94 422.495 10.94 422.495 -84 423 C-90.93 441.81 -97.86 460.62 -105 480 C-113.9375 503.3125 -113.9375 503.3125 -117.65234375 512.86328125 C-127.30466679 535.790856 -127.30466679 535.790856 -127.0625 559.75 C-114.56527376 573.38333772 -92.50892553 575.36132719 -75.26586914 578.72827148 C-74.5310733 578.87241486 -73.79627747 579.01655823 -73.03921509 579.16506958 C-71.63932888 579.43822542 -70.2386895 579.70755565 -68.83724976 579.97262573 C-64.10985943 580.89014057 -64.10985943 580.89014057 -63 582 C-63 602.46 -63 622.92 -63 644 C-139.56 644 -216.12 644 -295 644 C-295 623.54 -295 603.08 -295 582 C-290.05 580.68 -285.1 579.36 -280 578 C-268.30302954 574.77631424 -257.42292872 571.35975312 -247 565 C-246.14535156 564.49984375 -245.29070312 563.9996875 -244.41015625 563.484375 C-215.91927362 545.7567147 -203.12267022 509.44082464 -191.35546875 479.73046875 C-190.54953425 477.70907791 -189.74304141 475.68790961 -188.93603516 473.66694641 C-186.79117808 468.29148619 -184.65364484 462.91314264 -182.51751328 457.53421021 C-180.26337991 451.86213815 -178.00215014 446.19289674 -175.74145508 440.5234375 C-172.56921117 432.56641021 -169.39888967 424.60862315 -166.23148632 416.64966774 C-161.71854055 405.30974481 -157.19586115 393.97380531 -152.65625 382.64453125 C-152.24536416 381.61898447 -152.24536416 381.61898447 -151.8261776 380.57271957 C-150.7440832 377.87192943 -149.66191305 375.17116967 -148.57961559 372.47046089 C-135.66567485 340.24426034 -122.83382453 307.98537336 -109.99838638 275.72784805 C-95.21719195 238.58039142 -80.39092992 201.45120425 -65.53275299 164.33447647 C-53.7605982 134.92640193 -42.01664652 105.50774146 -30.35131836 76.05712891 C-20.29790749 50.6790928 -10.14939264 25.33987434 0 0 Z M6 7 C-21.30183093 75.12312183 -21.30183093 75.12312183 -48.4375 143.3125 C-50.34097181 148.11725647 -52.24449698 152.92199174 -54.1484375 157.7265625 C-54.39711452 158.35412319 -54.64579155 158.98168388 -54.90200424 159.62826157 C-64.09529475 182.82534302 -73.33236147 206.00506372 -82.5625 229.1875 C-83.03754345 230.38065952 -83.5125869 231.57381905 -84.0020256 232.80313492 C-95.07959976 260.62604958 -106.16212557 288.4468707 -117.30041504 316.24554443 C-124.33586782 333.80615189 -131.33852977 351.3796788 -138.33203125 368.95703125 C-139.27797927 371.33430185 -140.22393268 373.71157031 -141.16989136 376.08883667 C-146.86970976 390.41349992 -146.86970976 390.41349992 -152.56616211 404.73950195 C-161.69036578 427.69350054 -170.82267418 450.64445465 -180.04813194 473.55798912 C-180.8383107 475.52188703 -181.62718761 477.4863094 -182.41456032 479.451334 C-214.6846275 559.94818158 -214.6846275 559.94818158 -254.63574219 578.00488281 C-265.10513658 582.41145567 -275.93145112 585.54032247 -287 588 C-287 603.84 -287 619.68 -287 636 C-215.72 636 -144.44 636 -71 636 C-71 620.16 -71 604.32 -71 588 C-75.269375 587.113125 -79.53875 586.22625 -83.9375 585.3125 C-123.2759618 576.9230822 -123.2759618 576.9230822 -132.1875 566.875 C-137.29590829 558.77200754 -137.09793676 550.08864722 -135.265625 540.9140625 C-131.88510383 526.26845654 -126.13047677 512.23961784 -120.83190918 498.2074585 C-119.37257701 494.33514255 -117.92532934 490.45830948 -116.4765625 486.58203125 C-111.59872982 473.54054333 -106.7024402 460.50602185 -101.78439331 447.47964478 C-100.38005466 443.75862272 -98.97814356 440.03668853 -97.57653809 436.31463623 C-96.90321999 434.52872623 -96.22866914 432.74328049 -95.55285645 430.95831299 C-94.61694829 428.48632127 -93.68500271 426.01286979 -92.75390625 423.5390625 C-92.47343948 422.80147705 -92.19297272 422.0638916 -91.90400696 421.30395508 C-90.48797387 417.75031319 -90.48797387 417.75031319 -90 414 C-24 414 42 414 110 414 C110.99 417.63 111.98 421.26 113 425 C113.98827394 428.07636957 114.99474286 431.1337438 116.046875 434.1875 C116.33487473 435.03185104 116.62287445 435.87620209 116.91960144 436.74613953 C117.85964902 439.49860925 118.80473475 442.24931826 119.75 445 C120.41497195 446.94370572 121.07976366 448.88747311 121.74438477 450.83129883 C126.10156263 463.55647611 130.52887264 476.25652497 134.97805786 488.94976807 C139.36673806 501.4727014 143.75228073 513.99074031 147.8125 526.625 C148.27354126 528.05332153 148.27354126 528.05332153 148.74389648 529.51049805 C152.25002785 540.61103453 156.26103396 554.0046707 151.15625 565.23046875 C144.11347024 576.00877696 130.82700917 579.57425757 118.9375 582.08984375 C105.6462763 584.67090305 92.02725241 586.09084305 78.51171875 586.7890625 C75.87333817 586.91126158 75.87333817 586.91126158 73 588 C73 603.84 73 619.68 73 636 C167.38 636 261.76 636 359 636 C359 620.16 359 604.32 359 588 C353.76125 587.113125 348.5225 586.22625 343.125 585.3125 C296.95880017 577.23052159 296.95880017 577.23052159 281 562 C280.2678125 561.30777344 279.535625 560.61554687 278.78125 559.90234375 C264.59652098 545.35328094 258.72076825 525.68499125 252 507 C251.33617349 505.15931604 250.67226998 503.31865984 250.00830078 501.47802734 C246.05998243 490.52319199 242.13505242 479.56006589 238.21875 468.59375 C233.13362587 454.3559938 228.01049873 440.13204679 222.87746811 425.91150665 C222.18538796 423.99414875 221.49339126 422.07676076 220.80142212 420.15936279 C218.93802777 414.99604178 217.07461631 409.83272697 215.21089172 404.66952515 C212.17567236 396.26043455 209.1436351 387.85020221 206.11372948 379.43919563 C204.03458675 373.6676408 201.9548929 367.89628453 199.875 362.125 C199.64690769 361.49207157 199.41881538 360.85914314 199.18381119 360.20703506 C192.04016968 340.38550407 184.84944191 320.58140625 177.63519287 300.78546143 C170.92927906 282.37736247 164.31966192 263.93615815 157.74642944 245.48031616 C151.62469508 228.29638798 145.43576267 211.13831255 139.1875 194 C131.94870447 174.14321223 124.76553823 154.26727164 117.625 134.375 C117.14280563 133.03180816 116.66060755 131.68861765 116.17840576 130.34542847 C115.45483183 128.32985733 114.7312599 126.31428547 114.00769043 124.29871273 C113.52435445 122.95233775 113.0410145 121.60596419 112.55767059 120.25959206 C112.07381601 118.91178684 111.58997508 117.56397673 111.10614777 116.21616173 C102.48285433 92.19490951 93.82004478 68.1878986 85.14953613 44.18365479 C84.06470598 41.17920403 82.98085945 38.17440084 81.89746094 35.16943359 C80.41972981 31.07092547 78.93954016 26.97331717 77.45663452 22.87667847 C76.9509785 21.47852542 76.44625131 20.08003605 75.9425354 18.68118286 C75.28070961 16.84380357 74.61510811 15.00778551 73.94921875 13.171875 C73.41300903 11.6883252 73.41300903 11.6883252 72.8659668 10.17480469 C72.18868001 8.05689311 72.18868001 8.05689311 71 7 C68.97505769 6.90590521 66.9468013 6.88256878 64.91967773 6.88647461 C63.61840439 6.88655014 62.31713104 6.88662567 60.97642517 6.88670349 C59.54548098 6.89181091 58.11453718 6.89702692 56.68359375 6.90234375 C55.2277074 6.90420797 53.77182043 6.90563185 52.31593323 6.90663147 C48.47720621 6.91045635 44.63851681 6.92028636 40.79980469 6.93133545 C36.88542184 6.94155022 32.97103294 6.94612923 29.05664062 6.95117188 C21.37107657 6.96190866 13.68554355 6.97898471 6 7 Z " fill="#896E4B" transform="translate(1758,0)"/>
<path d="M0 0 C2.4153143 2.93542851 3.73830754 5.58972697 4.93847656 9.18774414 C5.46701988 10.75347168 5.46701988 10.75347168 6.00624084 12.35083008 C6.38058762 13.48415771 6.75493439 14.61748535 7.140625 15.78515625 C7.73882301 17.565271 7.73882301 17.565271 8.34910583 19.38134766 C9.20762918 21.938299 10.06354593 24.49595228 10.91513062 27.0552063 C12.94098835 33.1422749 14.9895131 39.22173082 17.03575706 45.30196953 C17.72392472 47.34752047 18.4112336 49.39335858 19.09846497 51.43922424 C22.87617016 62.67716046 26.7556477 73.87763908 30.6875 85.0625 C36.42132216 101.3946916 42.02003259 117.77007034 47.57174683 134.16500854 C53.30669757 151.09651004 59.14509634 167.98932879 65.09179688 184.84765625 C65.385401 185.68324066 65.67900513 186.51882507 65.98150635 187.37973022 C66.51215198 188.88985717 67.04483328 190.39927201 67.58050537 191.90762329 C70.26245411 199.55044083 72.57855646 207.25138067 75 215 C23.52 215 -27.96 215 -81 215 C-78.75016086 204.87572388 -78.75016086 204.87572388 -77.42211914 201.45727539 C-77.12245239 200.67633514 -76.82278564 199.8953949 -76.51403809 199.09078979 C-76.19100708 198.26805573 -75.86797607 197.44532166 -75.53515625 196.59765625 C-75.0181012 195.25720749 -75.0181012 195.25720749 -74.49060059 193.88967896 C-73.74466342 191.95795507 -72.99583944 190.02734392 -72.24441528 188.0977478 C-70.61685972 183.91806206 -69.00350457 179.73293533 -67.38890076 175.54823303 C-66.54017373 173.34916205 -65.69068575 171.15038462 -64.84046936 168.95188904 C-60.76556377 158.4124623 -56.74587812 147.85241511 -52.73831177 137.28723145 C-51.55143775 134.15833716 -50.36362133 131.02980213 -49.17553711 127.90136719 C-47.17923797 122.64452152 -45.18360489 117.38742333 -43.18817139 112.13024902 C-36.89738332 95.55710694 -30.6024818 78.9855326 -24.29974365 62.41693115 C-23.40057602 60.05308511 -22.50153657 57.68919031 -21.6026001 55.32525635 C-18.9278998 48.29165164 -16.25160733 41.2586575 -13.57184601 34.22697926 C-12.39292683 31.1334463 -11.21487809 28.039587 -10.03814697 24.94522095 C-8.73442809 21.51741547 -7.42809291 18.09061832 -6.12109375 14.6640625 C-5.7324263 13.64049149 -5.34375885 12.61692047 -4.9433136 11.56233215 C-4.5835997 10.62088852 -4.2238858 9.67944489 -3.85327148 8.70947266 C-3.54195786 7.89209625 -3.23064423 7.07471985 -2.90989685 6.23257446 C-2.0379935 4.093223 -1.06278949 2.05023273 0 0 Z M-1 24 C-1.37060547 24.99177246 -1.74121094 25.98354492 -2.12304688 27.00537109 C-10.93546937 50.58014961 -19.83522036 74.12011472 -28.80937195 97.63375854 C-33.78044788 110.66164097 -38.72930638 123.69797855 -43.67993164 136.73364258 C-44.47670943 138.83154898 -45.27350314 140.92944934 -46.0703125 143.02734375 C-46.46768112 144.07358414 -46.86504974 145.11982452 -47.27445984 146.19776917 C-49.86726503 153.02280478 -52.46422413 159.84624778 -55.06373596 166.66873169 C-56.84362929 171.34036763 -58.62233904 176.01245381 -60.40097046 180.68457031 C-61.25570519 182.92877359 -62.11102748 185.17275317 -62.96694946 187.41650391 C-64.150017 190.51799419 -65.33108922 193.62023725 -66.51171875 196.72265625 C-66.86696625 197.65235733 -67.22221375 198.58205841 -67.58822632 199.53993225 C-67.90804474 200.38148361 -68.22786316 201.22303497 -68.55737305 202.09008789 C-68.83759811 202.82530167 -69.11782318 203.56051544 -69.40653992 204.31800842 C-70.05545473 205.85990091 -70.05545473 205.85990091 -70 207 C-26.11 207 17.78 207 63 207 C61.28119843 199.26115527 61.28119843 199.26115527 58.99487305 191.79589844 C58.60151764 190.64972549 58.20816223 189.50355255 57.80288696 188.32264709 C57.37680145 187.0972673 56.95071594 185.87188751 56.51171875 184.609375 C56.05615833 183.2877412 55.60104116 181.96595455 55.14633179 180.64402771 C53.92100928 177.0856384 52.68973575 173.52933495 51.4573555 169.97338486 C50.15803312 166.22087064 48.86429087 162.46643371 47.57006836 158.7121582 C45.43242173 152.51310693 43.2918136 146.3150859 41.14941406 140.11767578 C38.21291176 131.62193437 35.28797456 123.12224881 32.3671875 114.62109375 C31.47271458 112.01812774 30.57817241 109.41518553 29.68359375 106.81225586 C29.46578625 106.17850698 29.24797874 105.54475809 29.02357101 104.8918047 C19.74775652 77.90509931 10.40024537 50.94359731 1 24 C0.34 24 -0.32 24 -1 24 Z " fill="#896E4B" transform="translate(1773,141)"/>
</svg>
